<svg width="28" height="30" viewBox="0 0 28 30" fill="none" xmlns="http://www.w3.org/2000/svg">
<path d="M26.3333 23.6666H8.99992C8.63143 23.6666 8.33325 23.3681 8.33325 22.9999V6.99992C8.33325 6.63175 8.63143 6.33325 8.99992 6.33325H26.3333C26.5474 6.33325 26.7486 6.43612 26.8743 6.61027C26.9993 6.7841 27.0338 7.00741 26.9654 7.21086L24.3691 14.9999L26.9654 22.789C27.0338 22.9924 26.9993 23.2157 26.8743 23.3896C26.7486 23.5637 26.5474 23.6666 26.3333 23.6666Z" fill="#58AA2C"/>
<path d="M8.00024 15C8.00024 15 12.0002 10.5 16.5002 15C21.0002 19.5 24.5002 15 24.5002 15L27.0002 24H8.00024V15Z" fill="white"/>
<path d="M8.99992 23.6666C8.89185 23.6666 8.78377 23.6405 8.68547 23.5878C8.46867 23.4716 8.33325 23.2457 8.33325 22.9999V6.99992C8.33325 6.63175 8.63143 6.33325 8.99992 6.33325H16.9999C17.3684 6.33325 17.6666 6.63175 17.6666 6.99992V17.6666C17.6666 17.8896 17.5553 18.0976 17.3697 18.2213L9.36971 23.5546C9.25838 23.6288 9.12948 23.6666 8.99992 23.6666Z" fill="#B3B3B3"/>
<path d="M17.3079 18H0.692552C0.309893 18 0.000244141 17.7072 0.000244141 17.3462V1.65385C0.000244141 1.29276 0.309893 1 0.692552 1H17.3079C17.6906 1 18.0002 1.29276 18.0002 1.65385V17.3462C18.0002 17.7072 17.6906 18 17.3079 18Z" fill="#6FBE49"/>
<path d="M0.000244141 9C0.000244141 9 4.00024 4.5 8.50024 9C13.0002 13.5 18.0002 9 18.0002 9V18H0.000244141V9Z" fill="white"/>
<path d="M8.33325 16.9999V22.9999C8.33325 23.3681 8.63143 23.6666 8.99992 23.6666H26.3333C26.5474 23.6666 26.7486 23.5637 26.8743 23.3896C26.9993 23.2157 27.0338 22.9924 26.9654 22.789L24.3691 14.9999L26.9654 7.21086C27.0338 7.00741 26.9993 6.7841 26.8743 6.61027C26.7486 6.43612 26.5474 6.33325 26.3333 6.33325H17.0002" stroke="#1A1A1A" stroke-width="1.5" stroke-linejoin="round"/>
<path d="M17.2502 1.75V17.25H0.750244V1.75H17.2502Z" stroke="#1A1A1A" stroke-width="1.5" stroke-linecap="round" stroke-linejoin="round"/>
<path d="M0.750244 30C0.335697 30 0.000244141 29.708 0.000244141 29.3478V0.652174C0.000244141 0.292011 0.335697 0 0.750244 0C1.16479 0 1.50024 0.292011 1.50024 0.652174V29.3478C1.50024 29.708 1.16479 30 0.750244 30Z" fill="#1A1A1A"/>
</svg>
