<svg width="40" height="40" viewBox="0 0 40 40" fill="none" xmlns="http://www.w3.org/2000/svg">
<rect width="40" height="40" rx="20" fill="#E7E7E7"/>
<path opacity="0.4" d="M24.0755 10H27.4615C28.8637 10 30 11.1459 30 12.56V15.9745C30 17.3886 28.8637 18.5345 27.4615 18.5345H24.0755C22.6732 18.5345 21.537 17.3886 21.537 15.9745V12.56C21.537 11.1459 22.6732 10 24.0755 10Z" fill="#4D4D4D"/>
<path fill-rule="evenodd" clip-rule="evenodd" d="M12.5385 10H15.9245C17.3268 10 18.463 11.1459 18.463 12.56V15.9745C18.463 17.3886 17.3268 18.5345 15.9245 18.5345H12.5385C11.1363 18.5345 10 17.3886 10 15.9745V12.56C10 11.1459 11.1363 10 12.5385 10ZM12.5385 21.4655H15.9245C17.3268 21.4655 18.463 22.6114 18.463 24.0255V27.44C18.463 28.8532 17.3268 30 15.9245 30H12.5385C11.1363 30 10 28.8532 10 27.44V24.0255C10 22.6114 11.1363 21.4655 12.5385 21.4655ZM27.4615 21.4655H24.0755C22.6732 21.4655 21.537 22.6114 21.537 24.0255V27.44C21.537 28.8532 22.6732 30 24.0755 30H27.4615C28.8637 30 30 28.8532 30 27.44V24.0255C30 22.6114 28.8637 21.4655 27.4615 21.4655Z" fill="#4D4D4D"/>
</svg>
