<svg width="40" height="40" viewBox="0 0 40 40" fill="none" xmlns="http://www.w3.org/2000/svg">
<rect width="40" height="40" rx="20" fill="#6FBE49"/>
<path opacity="0.4" d="M20 30C25.5228 30 30 25.5228 30 20C30 14.4772 25.5228 10 20 10C14.4772 10 10 14.4772 10 20C10 25.5228 14.4772 30 20 30Z" fill="white"/>
<path d="M16.0167 23.2512L17.6678 18.0532C17.7206 17.8758 17.8574 17.7357 18.0337 17.6786L23.2497 16.0302C23.3952 15.9806 23.5547 15.9925 23.6911 16.0633C23.8276 16.134 23.9291 16.2574 23.9721 16.4048C24.0093 16.5173 24.0093 16.6388 23.9721 16.7513L22.3397 21.9494C22.2837 22.1281 22.1435 22.2681 21.9645 22.324L16.7485 23.9724C16.6029 24.0193 16.4447 24.0061 16.3089 23.9357C16.1732 23.8653 16.0714 23.7436 16.0261 23.5978C15.9948 23.4847 15.9916 23.3658 16.0167 23.2512Z" fill="white"/>
</svg>
