<svg width="32" height="32" viewBox="0 0 32 32" fill="none" xmlns="http://www.w3.org/2000/svg">
<path d="M16 3C8.85 3 3 8.85 3 16C3 23.15 8.85 29 16 29C23.15 29 29 23.15 29 16C29 8.85 23.15 3 16 3ZM16 25.75C13.5625 25.75 11.45 24.9375 9.6625 23.475C10.6375 22.175 10.8 20.55 9.82499 19.25C9.0125 18.1125 7.7125 16.975 7.7125 16C7.7125 14.7 10.8 14.2125 11.775 12.9125C12.9125 11.6125 11.775 9.175 10.6375 7.875C11.9375 7.0625 13.4 6.4125 15.1875 6.25C15.5125 7.0625 16.65 8.0375 17.1375 8.6875C17.95 9.98749 18.1125 10.8 19.25 10.8C19.575 10.8 22.5 10.8 24.125 10.3125C25.1 11.9375 25.75 13.8875 25.75 16C25.75 21.3625 21.3625 25.75 16 25.75Z" fill="#4D4D4D"/>
<path d="M19.5752 13.8873C17.6252 13.8873 15.8377 15.1873 16.0002 16.9748C16.4877 21.0373 15.1877 22.4998 16.9752 23.3123C19.0877 24.1248 23.3127 20.2248 23.1502 16.9748C23.1502 15.1873 21.6877 13.8873 19.5752 13.8873Z" fill="#4D4D4D"/>
</svg>
